<svg viewBox="0 0 25 25" xmlns="http://www.w3.org/2000/svg">
  <defs>
    <style>
      .cls-2{fill:#c4c6ca}
    </style>
  </defs>
  <g data-name="Layer 2" id="Layer_2">
    <g data-name="Layer 1 copy" id="Layer_1_copy">
      <g data-name="adobe acrobat file pdf" id="adobe_acrobat_file_pdf">
        <path d="M7.77 4.84A1.27 1.27 0 0 0 6.5 6.12v12.76a1.27 1.27 0 0 0 1.27 1.27h9.46a1.27 1.27 0 0 0 1.27-1.27V8.46l-3.63-3.62z" fill="#f7f9fa"/>
        <path class="cls-2" d="M17.9 18.89a.67.67 0 0 1-.67.67H7.77a.67.67 0 0 1-.67-.67V6.11a.67.67 0 0 1 .67-.67h7.71l-.6-.6H7.77A1.27 1.27 0 0 0 6.5 6.11v12.78a1.27 1.27 0 0 0 1.27 1.27h9.46a1.27 1.27 0 0 0 1.27-1.27V8.46l-.6-.6z"/>
        <path class="cls-2" d="M15.92 8.72h2.58v-.26l-3.63-3.62h-.23v2.61a1.27 1.27 0 0 0 1.28 1.27z"/>
        <path d="M9.8 16.95a1.07 1.07 0 0 1-.93-.53 1.11 1.11 0 0 1 1-1.68H11l1.13-2-.61-1.06a1.11 1.11 0 1 1 1.92 0l-.62 1.07 1.13 2h1.25a1.08 1.08 0 0 1 .93 1.63 1.1 1.1 0 0 1-1 .54 1.1 1.1 0 0 1-1-.55l-.59-1h-2.19l-.62 1.07a1.07 1.07 0 0 1-.93.54zm0-1.61a.51.51 0 0 0-.44.77.48.48 0 0 0 .41.23.47.47 0 0 0 .41-.24l.44-.77zm4.48 0l.41.72a.51.51 0 0 0 .44.26.51.51 0 0 0 .44-.25.48.48 0 0 0-.41-.72zm-2.61-.6h1.58l-.79-1.36zm.79-4.09a.51.51 0 0 0-.44.77l.44.76.44-.77a.51.51 0 0 0-.44-.76z" fill="#e24c5f"/>
      </g>
      <path fill="none" d="M0 0h25v25H0z"/>
    </g>
  </g>
</svg>
