<svg viewBox="0 0 25 25" xmlns="http://www.w3.org/2000/svg">
  <defs>
    <style>
      .cls-2{fill:#c4c6ca}.cls-3{fill:none;stroke:#4587f4;stroke-linecap:round;stroke-linejoin:round;stroke-width:.7px}
    </style>
  </defs>
  <g data-name="Layer 2" id="Layer_2">
    <g data-name="Layer 1 copy" id="Layer_1_copy">
      <g data-name="google docs (white)" id="google_docs_white_">
        <path d="M7.77 4.84A1.27 1.27 0 0 0 6.5 6.12v12.76a1.27 1.27 0 0 0 1.27 1.27h9.46a1.27 1.27 0 0 0 1.27-1.27V8.46l-3.63-3.62z" fill="#f7f9fa"/>
        <path class="cls-2" d="M17.9 18.89a.67.67 0 0 1-.67.67H7.77a.67.67 0 0 1-.67-.67V6.11a.67.67 0 0 1 .67-.67h7.71l-.6-.6H7.77A1.27 1.27 0 0 0 6.5 6.11v12.78a1.27 1.27 0 0 0 1.27 1.27h9.46a1.27 1.27 0 0 0 1.27-1.27V8.46l-.6-.6z"/>
        <path class="cls-2" d="M15.92 8.72h2.58v-.26l-3.63-3.62h-.23v2.61a1.27 1.27 0 0 0 1.28 1.27z"/>
        <path class="cls-3" d="M13.58 15.67H9.91M9.91 11.3h5.12M9.91 12.75h5.12M9.91 14.21h5.12"/>
      </g>
      <path fill="none" d="M0 0h25v25H0z"/>
    </g>
  </g>
</svg>
